PathFileType	4	(X/Y/Z)	Walk6.trc
DataRate	CameraRate	NumFrames	NumMarkers	Units	OrigDataRate	OrigDataStartFrame	OrigNumFrames
200.000000	200.000000	4	61	mm	200.000000	169	449
Frame#	Times		LFHD		RFHD		CLAV		STRN		LASI		RASI		RACR1		RUA1		RFA1		RWRU		RCAR		LACR1		LUA1		LFA1		LWRU		LCAR		RTH3		RTH2		RTH4		RTB3		RTB4		LTH1		LTH3		LTH2		LTH4		LLFC		LTB1		LTB2		LTB4		RTH1		RTB1		RMT5		RMFC		RToe		RMT1		RMMAL		LElbow		RTB2		LBHD		RLFC		LWRR		RLMAL		RCAL		RWRR		RElbow		T10		RBack		RPSI		RBHD		LTB3		LMFC		LPSI		LToe		LLMAL		C7		RElbowM		LCAL		LElbowM		LMT5		LMT1		LMMAL
			X1	Y1	Z1	X2	Y2	Z2	X3	Y3	Z3	X4	Y4	Z4	X5	Y5	Z5	X6	Y6	Z6	X7	Y7	Z7	X8	Y8	Z8	X9	Y9	Z9	X10	Y10	Z10	X11	Y11	Z11	X12	Y12	Z12	X13	Y13	Z13	X14	Y14	Z14	X15	Y15	Z15	X16	Y16	Z16	X17	Y17	Z17	X18	Y18	Z18	X19	Y19	Z19	X20	Y20	Z20	X21	Y21	Z21	X22	Y22	Z22	X23	Y23	Z23	X24	Y24	Z24	X25	Y25	Z25	X26	Y26	Z26	X27	Y27	Z27	X28	Y28	Z28	X29	Y29	Z29	X30	Y30	Z30	X31	Y31	Z31	X32	Y32	Z32	X33	Y33	Z33	X34	Y34	Z34	X35	Y35	Z35	X36	Y36	Z36	X37	Y37	Z37	X38	Y38	Z38	X39	Y39	Z39	X40	Y40	Z40	X41	Y41	Z41	X42	Y42	Z42	X43	Y43	Z43	X44	Y44	Z44	X45	Y45	Z45	X46	Y46	Z46	X47	Y47	Z47	X48	Y48	Z48	X49	Y49	Z49	X50	Y50	Z50	X51	Y51	Z51	X52	Y52	Z52	X53	Y53	Z53	X54	Y54	Z54	X55	Y55	Z55	X56	Y56	Z56	X57	Y57	Z57	X58	Y58	Z58	X59	Y59	Z59	X60	Y60	Z60	X61	Y61	Z61

169	0.845	-671.93	1567.3	-14.495	-673.02	1572.2	85.468	-717.79	1292.6	38.998	-699.81	1157.1	45.219	-744.05	885.98	-61.757	-750.34	902.24	188.48	-774.48	1333.6	207.38	-771.77	1164.7	263.14	-681.23	893.67	304.05	-593.2	815.18	255.26	-571.6	745.9	296.47	-800.65	1339.9	-111.12	-867.61	1176.9	-163.56	-962.34	902.38	-202.45	-937.06	778.59	-200.86	-986.54	719.47	-220.39	-898.06	583.08	218.1	-818.42	650.46	211.11	-870.27	660.31	236.48	-1080	189.84	134.13	-1033	260.41	147.3	-760.17	724.4	-133.46	-705.9	564.03	-99.497	-683.03	667.4	-94.68	-733.66	643.31	-118.38	-656.99	439.3	-73.764	-587.46	362.13	-11.48	-585.67	270.33	-64.752	-569.8	277.92	-6.2293	-839.78	739.71	258.56	-986.18	333.71	158.32	-1111	29.622	146.56	-985.09	450.4	63.491	-1023.9	25.207	95.143	-1075	33.741	62.306	-1157.4	135.03	62.266	-939.56	1035.9	-172.76	-1075.7	282.73	185.55	-815.73	1505.1	-36.663	-955.41	440.11	190.49	-1003.7	791.81	-184.9	-1182.8	122.35	140.43	-1236.7	123.23	95.233	-638.19	782.84	295.52	-768.82	997.51	299.18	-904.45	1189.7	55.083	-901.59	1276.9	125.79	-919.5	945.54	97.982	-816.19	1517.3	106.86	-546.22	196.81	-0.015359	-675	422.42	58.104	-918.44	945.13	-1.9527	-365.99	100.14	-5.1769	-560.79	72.343	-39.09	-825.24	1398.3	43.398	-807.15	989.58	230.87	-601.33	28.241	5.7822	-938.64	1018.1	-100.82	-444.45	61.037	-47.269	-416.99	86.707	25.33	-551.62	96.02	39.276
170	0.85	-664.55	1566.7	-14.829	-665.75	1571.4	85.121	-710.01	1292	38.263	-691.76	1156.5	44.52	-735.8	885.35	-62.056	-742.06	901.23	188.1	-767.07	1332.8	206.63	-764.5	1164	262.46	-674.23	892.85	303.83	-586.15	814.23	255.34	-564.75	744.97	296.66	-792.89	1339.1	-111.92	-859.63	1176.1	-164.46	-954.31	901.57	-203.59	-929.11	777.74	-202.04	-978.61	718.68	-221.7	-889.53	581.91	218.05	-809.98	649.4	210.92	-861.84	659.24	236.23	-1075.9	190.49	134.9	-1027.5	260.24	147.88	-751.95	723.89	-133.59	-697.72	563.67	-99.014	-674.71	667	-94.878	-725.47	642.87	-118.2	-648.99	438.74	-73.427	-580.41	360.81	-10.658	-579.38	268.96	-63.747	-563.69	276.44	-5.1973	-831.47	738.74	258.08	-979.44	332.66	158.8	-1110.4	30.011	146.77	-976.7	449.32	63.978	-1024.2	25.162	94.991	-1075	33.723	62.369	-1154.3	137	63.303	-931.44	1035	-173.77	-1069.9	283.38	186.09	-808.29	1504.5	-37.264	-946.93	438.89	190.75	-995.72	790.99	-186.15	-1179.8	124.89	141.44	-1233.6	127.13	96.43	-631.25	781.97	295.51	-761.71	996.77	298.6	-896.53	1188.8	54.3	-894	1275.9	124.82	-911.2	944.75	97.54	-808.9	1516.5	106.27	-541.07	195.13	1.218	-667.19	422.31	58.391	-910.16	944.59	-2.4432	-362.14	95.526	-3.2347	-556.89	71.063	-38.014	-817.66	1397.5	42.578	-799.85	988.8	230.21	-598.43	28.097	6.5376	-930.53	1017.1	-101.82	-440.95	57.773	-45.762	-413.32	82.653	27.023	-547.79	94.43	40.437
171	0.855	-657.17	1566.2	-15.171	-658.48	1570.8	84.769	-702.21	1291.4	37.505	-683.69	1156	43.783	-727.6	884.83	-62.391	-733.72	900.23	187.66	-759.64	1332	205.88	-757.24	1163.3	261.76	-667.32	892.02	303.62	-579.22	813.22	255.47	-558.08	744	296.92	-785.11	1338.4	-112.74	-851.55	1175.2	-165.39	-946.08	900.74	-204.79	-920.92	776.89	-203.27	-970.43	717.89	-223.08	-880.73	580.68	217.99	-801.34	648.32	210.71	-853.22	658.12	235.95	-1071.4	191.16	135.7	-1021.7	260.05	148.51	-743.8	723.47	-133.76	-689.54	563.42	-98.544	-666.41	666.72	-95.165	-717.3	642.51	-118.05	-640.95	438.33	-73.097	-573.44	359.56	-9.7809	-573.19	267.69	-62.726	-557.77	275.03	-4.1285	-823.03	737.74	257.56	-972.36	331.56	159.32	-1109.8	30.489	147	-967.92	448.1	64.492	-1024.5	25.096	94.846	-1074.9	33.759	62.443	-1150.9	139.06	64.378	-923.16	1034.1	-174.83	-1063.7	284.04	186.63	-800.83	1504	-37.891	-938.08	437.58	191.02	-987.55	790.15	-187.47	-1176.5	127.55	142.47	-1230.1	131.24	97.651	-624.46	781.07	295.53	-754.63	996.08	297.99	-888.58	1187.9	53.511	-886.39	1275.1	123.81	-902.88	944.03	97.182	-801.6	1515.7	105.65	-536.2	193.5	2.4763	-659.38	422.37	58.668	-901.9	944.15	-2.8553	-358.71	90.6	-1.2471	-553.4	69.875	-36.987	-810.06	1396.7	41.731	-792.57	988.08	229.53	-596.03	28.123	7.2065	-922.3	1016.1	-102.87	-437.92	54.411	-44.291	-410.1	78.358	28.733	-544.38	92.883	41.567
172	0.86	-649.78	1565.8	-15.522	-651.21	1570.2	84.412	-694.38	1290.9	36.728	-675.58	1155.6	43.012	-719.45	884.41	-62.762	-725.33	899.25	187.15	-752.19	1331.3	205.11	-750	1162.6	261.03	-660.51	891.21	303.42	-572.42	812.17	255.64	-551.59	742.99	297.24	-777.31	1337.7	-113.58	-843.35	1174.4	-166.35	-937.62	899.91	-206.02	-912.49	776.04	-204.54	-961.98	717.09	-224.52	-871.67	579.37	217.92	-792.49	647.24	210.47	-844.4	656.94	235.63	-1066.6	191.88	136.54	-1015.7	259.85	149.19	-735.71	723.13	-133.99	-681.37	563.29	-98.094	-658.14	666.56	-95.538	-709.17	642.26	-117.93	-632.86	438.07	-72.779	-566.55	358.41	-8.8614	-567.08	266.55	-61.711	-552	273.7	-3.0424	-814.46	736.72	256.98	-964.93	330.4	159.87	-1109	31.076	147.25	-958.71	446.72	65.028	-1024.8	25.005	94.709	-1074.7	33.865	62.534	-1147.2	141.21	65.483	-914.71	1033.2	-175.94	-1057.2	284.74	187.18	-793.36	1503.5	-38.541	-928.85	436.18	191.3	-979.14	789.3	-188.85	-1172.9	130.33	143.51	-1226.2	135.57	98.895	-617.82	780.16	295.59	-747.58	995.44	297.36	-880.61	1187.2	52.724	-878.75	1274.3	122.79	-894.58	943.37	96.912	-794.3	1515	105.01	-531.58	191.94	3.7341	-651.58	422.58	58.928	-893.67	943.81	-3.1858	-355.67	85.472	0.75341	-550.26	68.809	-36.036	-802.41	1396.1	40.862	-785.31	987.41	228.83	-594.06	28.315	7.7736	-913.94	1015.2	-103.96	-435.3	51.031	-42.89	-407.28	73.916	30.431	-541.33	91.421	42.637
